<?xml version="1.0" standalone="no"?><!DOCTYPE svg PUBLIC "-//W3C//DTD SVG 1.1//EN" "http://www.w3.org/Graphics/SVG/1.1/DTD/svg11.dtd"><svg class="icon" width="64px" height="64.00px" viewBox="0 0 1024 1024" version="1.1" xmlns="http://www.w3.org/2000/svg"><path d="M168.457 407.559c-57.676 0-104.453 46.738-104.453 104.453 0 57.695 46.758 104.433 104.453 104.433S272.91 569.707 272.91 512.012c-0.02-57.715-46.777-104.453-104.453-104.453z m333.125 0c-57.676 0-104.453 46.738-104.453 104.453 0 57.695 46.758 104.433 104.453 104.433s104.453-46.738 104.453-104.433c0-57.715-46.758-104.453-104.453-104.453z m353.965 0c-57.695 0-104.453 46.738-104.453 104.453 0 57.695 46.758 104.433 104.453 104.433S960 569.707 960 512.012c0-57.715-46.777-104.453-104.453-104.453z" fill="#949596" /></svg>