<?xml version="1.0" encoding="utf-8"?>
<!-- Generator: Adobe Illustrator 21.0.0, SVG Export Plug-In . SVG Version: 6.00 Build 0)  -->
<svg version="1.1" id="图层_1" xmlns="http://www.w3.org/2000/svg" xmlns:xlink="http://www.w3.org/1999/xlink" x="0px" y="0px"
	 viewBox="0 0 750 1334" style="enable-background:new 0 0 750 1334;" xml:space="preserve">
<style type="text/css">
	.st0{clip-path:url(#SVGID_2_);fill:#3A3A3A;}
</style>
<g>
	<g>
		<defs>
			<rect id="SVGID_1_" x="209.5" y="334.5" width="330.9" height="665.9"/>
		</defs>
		<clipPath id="SVGID_2_">
			<use xlink:href="#SVGID_1_"  style="overflow:visible;"/>
		</clipPath>
		<path class="st0" d="M261,974.9l0-614.4c0-14.1-11.5-25.6-25.6-25.6c-14.1,0-25.6,11.5-25.6,25.6v614.4
			c0,14.1,11.5,25.6,25.6,25.6C249.6,1000.5,261,989,261,974.9L261,974.9z M349,360.5v614.4c0,14.1,11.5,25.6,25.6,25.6
			c14.1,0,25.6-11.5,25.6-25.6V360.5c0-14.1-11.5-25.6-25.6-25.6C360.5,334.9,349,346.4,349,360.5L349,360.5z M488.2,360.5l0,614.4
			c0,14.1,11.5,25.6,25.6,25.6c14.1,0,25.6-11.5,25.6-25.6V360.5c0-14.1-11.5-25.6-25.6-25.6C499.7,334.9,488.2,346.4,488.2,360.5
			L488.2,360.5z M488.2,360.5"/>
	</g>
</g>
</svg>
