<?xml version="1.0" encoding="utf-8"?>
<!-- Generator: Adobe Illustrator 21.0.0, SVG Export Plug-In . SVG Version: 6.00 Build 0)  -->
<svg version="1.1" id="图层_1" xmlns="http://www.w3.org/2000/svg" xmlns:xlink="http://www.w3.org/1999/xlink" x="0px" y="0px"
	 viewBox="0 0 750 1334" style="enable-background:new 0 0 750 1334;" xml:space="preserve">
<style type="text/css">
	.st0{clip-path:url(#SVGID_2_);fill:#F4F4F4;}
</style>
<g>
	<g>
		<defs>
			<rect id="SVGID_1_" x="-35" y="257" width="819.8" height="820.7"/>
		</defs>
		<clipPath id="SVGID_2_">
			<use xlink:href="#SVGID_1_"  style="overflow:visible;"/>
		</clipPath>
		<path class="st0" d="M455.5,734l-67.2,17.5c61,69.7,125.3,143,133.3,150.7c0,0,0.1,0.1,0.1,0.1c1.1,1.3,2.3,2.7,3.5,3.9
			c17.3,16.8,45.2,16.8,62.4,0c17.3-16.8,17.3-44,0-60.8C580.4,838.4,519.8,787.6,455.5,734L455.5,734z M374.5,257.5
			c-226.2,0-409.6,183.4-409.6,409.5c0,226.3,183.4,409.7,409.6,409.7c226.2,0,409.6-183.4,409.6-409.7
			C784.1,440.9,600.7,257.5,374.5,257.5L374.5,257.5z M374.5,1051.1c-212.1,0-384-171.9-384-384.1c0-212.1,171.9-383.9,384-383.9
			c212.1,0,384,171.9,384,383.9C758.5,879.2,586.6,1051.1,374.5,1051.1L374.5,1051.1z M600,416.7c-5.7-5.6-15-5.6-20.7,0
			C579.1,417,358,632.7,347,643.4c-11.2-9.3-21.1-17.6-29.1-24.2c16.7-26.8,13.9-62.1-8.9-86l-105.9-104c-5.8-5.6-15-5.6-20.7,0
			c-5.8,5.6-5.8,14.6,0,20.3c0,0,0.1,0,0.1,0.1c0,0,62.8,61.4,62.7,61.4c5.6,5.6,5.5,14.5-0.1,20c-5.7,5.5-15,5.6-20.7,0.1
			l-62.8-61.3l-0.2,0.2c0,0,0-0.1-0.1-0.1c-5.8-5.6-15-5.6-20.7,0c-5.7,5.6-5.7,14.6,0,20.3c0,0,0.1,0,0.1,0.1l62.6,61.3
			c5.6,5.6,5.6,14.6,0,20.2c-5.7,5.6-14.8,5.6-20.6,0.2l-63-61.2c-5.7-5.6-15.1-5.6-20.8,0c-5.7,5.6-5.7,14.6,0,20.3
			c0,0,84.3,82,106.8,103.5c22.5,21.5,60.6,24.8,88.1,8.3c6.9,7.9,15.3,17.5,24.7,28.4c-75.4,73.2-170.2,165.4-179,175.1
			c-0.6,0.7-1.1,1.3-1.4,2c-14.6,16.9-13.8,42.2,2.6,58.1c16.2,15.9,42.2,16.7,59.6,2.5c0.1,0,0.1-0.1,0.1-0.2
			c10.9-8.1,116.2-128.7,187.6-211.1c22.9,16,54.9,13.9,75.5-6.1l1.5-1.5c61.1-61.2,139.6-202.1,139.6-262c0-0.1-0.1-0.2-0.2-0.3
			C604.4,423.6,603,419.7,600,416.7L600,416.7z M600,416.7"/>
	</g>
</g>
</svg>
