<?xml version="1.0" encoding="utf-8"?>
<!-- Generator: Adobe Illustrator 21.0.0, SVG Export Plug-In . SVG Version: 6.00 Build 0)  -->
<svg version="1.1" id="图层_1" xmlns="http://www.w3.org/2000/svg" xmlns:xlink="http://www.w3.org/1999/xlink" x="0px" y="0px"
	 viewBox="0 0 750 1334" style="enable-background:new 0 0 750 1334;" xml:space="preserve">
<style type="text/css">
	.st0{fill:#F4F4F4;}
</style>
<path class="st0" d="M375,257.4C148.8,257.4-34.6,440.8-34.6,667s183.4,409.6,409.6,409.6S784.6,893.2,784.6,667
	S601.2,257.4,375,257.4z M587.6,906.2c-17.2,16.8-45.1,16.8-62.4,0c-1.2-1.2-2.4-2.6-3.5-3.9c-0.1,0-0.1-0.1-0.1-0.1
	c-8-7.8-72.3-81-133.3-150.7l67.2-17.5c64.3,53.6,124.9,104.4,132,111.4C604.9,862.1,604.9,889.4,587.6,906.2z M464.8,689.9
	l-1.5,1.5c-20.6,20.1-52.6,22.1-75.5,6.1c-71.5,82.4-176.8,203-187.6,211.1c0,0.1-0.1,0.2-0.1,0.2c-17.4,14.2-43.4,13.5-59.6-2.5
	c-16.4-15.9-17.1-41.2-2.6-58.1c0.4-0.7,0.9-1.4,1.4-2c8.8-9.6,103.6-101.9,179-175.1c-9.4-10.9-17.9-20.5-24.7-28.4
	c-27.5,16.5-65.6,13.2-88.1-8.3C182.9,613,98.6,531,98.6,531c-5.7-5.6-5.7-14.7,0-20.3c5.8-5.6,15.1-5.6,20.8,0l63,61.2
	c5.8,5.5,14.9,5.4,20.6-0.2c5.7-5.6,5.7-14.6,0-20.2l-62.6-61.3c0-0.1-0.1-0.1-0.1-0.1c-5.7-5.6-5.7-14.7,0-20.3
	c5.7-5.6,14.9-5.6,20.7,0c0,0,0,0.1,0,0.1l0.2-0.2l62.8,61.3c5.7,5.5,15,5.4,20.7-0.1c5.6-5.5,5.7-14.4,0.1-20
	c0.1-0.1-62.7-61.4-62.7-61.4c0-0.1-0.1-0.1-0.1-0.1c-5.8-5.6-5.8-14.7,0-20.3c5.7-5.6,15-5.6,20.7,0l105.9,104
	c22.7,23.9,25.6,59.1,8.9,86c8,6.7,18,14.9,29.1,24.2C358,632.7,579.1,417,579.3,416.7c5.7-5.6,14.9-5.6,20.7,0
	c3,3,4.4,6.9,4.3,10.9c0.1,0.1,0.2,0.3,0.2,0.3C604.4,487.8,525.9,628.7,464.8,689.9z"/>
</svg>
