<?xml version="1.0" encoding="utf-8"?>
<!-- Generator: Adobe Illustrator 21.0.0, SVG Export Plug-In . SVG Version: 6.00 Build 0)  -->
<svg version="1.1" id="图层_1" xmlns="http://www.w3.org/2000/svg" xmlns:xlink="http://www.w3.org/1999/xlink" x="0px" y="0px"
	 viewBox="0 0 750 1334" style="enable-background:new 0 0 750 1334;" xml:space="preserve">
<style type="text/css">
	.st0{fill:#F4F4F4;}
</style>
<g>
	<circle class="st0" cx="511.9" cy="814.5" r="40.8"/>
	<path class="st0" d="M374.9,257.8c-226.2,0-409.6,183.4-409.6,409.6S148.7,1077,374.9,1077s409.6-183.4,409.6-409.6
		S601.1,257.8,374.9,257.8z M388.3,925.4H191.7c-23.6,0-42.7-19.1-42.7-42.7V455.4c0-23.6,19.1-42.7,42.7-42.7h341.8
		c23.6,0,42.7,19.1,42.7,42.7v224.3h-42.5V497.9c0-18.9-15.3-34.2-34.2-34.2H225.7c-18.9,0-34.2,15.3-34.2,34.2v342.2
		c0,18.9,15.3,34.2,34.2,34.2h162.5V925.4z M262.2,658.5v-51.3H463v51.3H262.2z M377.1,692.6v51.3H262.2v-51.3H377.1z M262.2,573
		v-51.3H463V573H262.2z M618.7,855.3c0,0-0.3,0.3-17.4,29.4c-60-17.1-71.1,40.7-71.1,40.7h-35.4c-17.5-62.8-70.8-39.8-70.8-39.8
		l-18.7-30.8c48.3-45.8,0-79.5,0-79.5c0,0,0.6-0.9,18.5-30.7c61.7,17.2,71.3-40.8,71.3-40.8h35c11.2,57.9,71.6,40.9,71.6,40.9
		s-0.3,0.6,17.2,29.7C573.5,816.2,618.7,855.3,618.7,855.3z"/>
</g>
</svg>
