<?xml version="1.0" encoding="utf-8"?>
<!-- Generator: Adobe Illustrator 21.0.0, SVG Export Plug-In . SVG Version: 6.00 Build 0)  -->
<svg version="1.1" id="图层_1" xmlns="http://www.w3.org/2000/svg" xmlns:xlink="http://www.w3.org/1999/xlink" x="0px" y="0px"
	 viewBox="0 0 750 1334" style="enable-background:new 0 0 750 1334;" xml:space="preserve">
<style type="text/css">
	.st0{clip-path:url(#SVGID_2_);fill:#F4F4F4;}
	.st1{fill:#F4F4F4;}
</style>
<g>
	<g>
		<defs>
			<rect id="SVGID_1_" x="-35" y="257" width="819.8" height="820.7"/>
		</defs>
		<clipPath id="SVGID_2_">
			<use xlink:href="#SVGID_1_"  style="overflow:visible;"/>
		</clipPath>
		<path class="st0" d="M374.5,257.5c-226.2,0-409.6,183.4-409.6,409.5c0,226.3,183.4,409.7,409.6,409.7
			c226.2,0,409.6-183.4,409.6-409.7C784.1,440.9,600.7,257.5,374.5,257.5L374.5,257.5z M374.5,1051.1c-212.1,0-384-171.9-384-384.1
			c0-212.1,171.9-383.9,384-383.9c212.1,0,384,171.9,384,383.9C758.5,879.2,586.6,1051.1,374.5,1051.1L374.5,1051.1z"/>
	</g>
</g>
<g>
	<path class="st1" d="M262.2,607.2H463v51.3H262.2V607.2z M262.2,521.7H463V573H262.2V521.7z M262.2,692.6h114.8v51.3H262.2V692.6z
		 M619,774.3c-17.5-29.2-17.2-29.7-17.2-29.7s-60.4,16.9-71.6-40.9h-35c0,0-9.6,58-71.3,40.8c-17.8,29.7-18.4,30.7-18.5,30.7
		c0,0,48.3,33.7,0,79.5l18.7,30.8c0,0,53.3-23,70.8,39.8h35.4c0,0,11.1-57.7,71.1-40.7c17.1-29.1,17.4-29.4,17.4-29.4
		S573.5,816.2,619,774.3L619,774.3z M511.9,855.3c-22.5,0-40.8-18.3-40.8-40.8c0-22.5,18.3-40.8,40.8-40.8
		c22.5,0,40.8,18.3,40.8,40.8C552.7,837.1,534.4,855.3,511.9,855.3L511.9,855.3z M225.7,874.3c-18.9,0-34.2-15.3-34.2-34.2V497.9
		c0-18.9,15.3-34.2,34.2-34.2h273.8c18.9,0,34.2,15.3,34.2,34.2v181.8h42.5V455.4c0-23.6-19.1-42.7-42.7-42.7H191.7
		c-23.6,0-42.7,19.1-42.7,42.7v427.3c0,23.6,19.1,42.7,42.7,42.7h196.5v-51H225.7z M225.7,874.3"/>
</g>
</svg>
